HIERARCHY
ROOT mixamorig:Hips
{
	OFFSET -0.000008 104.274872 1.554316
	CHANNELS 6 Xposition Yposition Zposition Xrotation Yrotation Zrotation
	JOINT mixamorig:Spine
	{
		OFFSET -0.000005 10.181595 0.131519
		CHANNELS 6 Xposition Yposition Zposition Xrotation Yrotation Zrotation
		JOINT mixamorig:Spine1
		{
			OFFSET -0.000000 9.893959 -1.470707
			CHANNELS 6 Xposition Yposition Zposition Xrotation Yrotation Zrotation
			JOINT mixamorig:Spine2
			{
				OFFSET -0.000000 9.220757 -1.370641
				CHANNELS 6 Xposition Yposition Zposition Xrotation Yrotation Zrotation
				JOINT mixamorig:Neck
				{
					OFFSET 0.000001 16.740417 -2.049036
					CHANNELS 6 Xposition Yposition Zposition Xrotation Yrotation Zrotation
					JOINT mixamorig:Head
					{
						OFFSET 0.000000 9.617874 1.685006
						CHANNELS 6 Xposition Yposition Zposition Xrotation Yrotation Zrotation
						JOINT mixamorig:HeadTop_End
						{
							OFFSET 0.000002 22.037354 7.501101
							CHANNELS 6 Xposition Yposition Zposition Xrotation Yrotation Zrotation
							End Site
							{
								OFFSET 0.000168 2310.654297 -282.823242
							}
						}
					}
				}
				JOINT mixamorig:RightShoulder
				{
					OFFSET -4.569970 11.014908 -2.160885
					CHANNELS 6 Xposition Yposition Zposition Xrotation Yrotation Zrotation
					JOINT mixamorig:RightArm
					{
						OFFSET -10.592851 -0.524811 -2.232101
						CHANNELS 6 Xposition Yposition Zposition Xrotation Yrotation Zrotation
						JOINT mixamorig:RightForeArm
						{
							OFFSET -27.841511 0.000031 -0.000004
							CHANNELS 6 Xposition Yposition Zposition Xrotation Yrotation Zrotation
							JOINT mixamorig:RightHand
							{
								OFFSET -28.328831 -0.000015 0.000015
								CHANNELS 6 Xposition Yposition Zposition Xrotation Yrotation Zrotation
								JOINT mixamorig:RightHandThumb1
								{
									OFFSET -2.464806 -1.573990 2.681852
									CHANNELS 6 Xposition Yposition Zposition Xrotation Yrotation Zrotation
									JOINT mixamorig:RightHandThumb2
									{
										OFFSET -3.215179 -1.872803 1.924282
										CHANNELS 6 Xposition Yposition Zposition Xrotation Yrotation Zrotation
										JOINT mixamorig:RightHandThumb3
										{
											OFFSET -2.654831 -1.527969 1.512609
											CHANNELS 6 Xposition Yposition Zposition Xrotation Yrotation Zrotation
											JOINT mixamorig:RightHandThumb4
											{
												OFFSET -2.018814 -1.152008 1.108052
												CHANNELS 6 Xposition Yposition Zposition Xrotation Yrotation Zrotation
												End Site
												{
													OFFSET -188.809540 -114.533607 132.431396
												}
											}
										}
									}
								}
								JOINT mixamorig:RightHandIndex1
								{
									OFFSET -9.108284 -0.517868 2.259835
									CHANNELS 6 Xposition Yposition Zposition Xrotation Yrotation Zrotation
									JOINT mixamorig:RightHandIndex2
									{
										OFFSET -3.699989 0.000000 0.001215
										CHANNELS 6 Xposition Yposition Zposition Xrotation Yrotation Zrotation
										JOINT mixamorig:RightHandIndex3
										{
											OFFSET -2.850006 0.000031 -0.000522
											CHANNELS 6 Xposition Yposition Zposition Xrotation Yrotation Zrotation
											JOINT mixamorig:RightHandIndex4
											{
												OFFSET -2.772186 -0.000015 -0.000020
												CHANNELS 6 Xposition Yposition Zposition Xrotation Yrotation Zrotation
												End Site
												{
													OFFSET -277.218445 0.000000 -0.050231
												}
											}
										}
									}
								}
								JOINT mixamorig:RightHandMiddle1
								{
									OFFSET -9.532516 -0.000031 -0.000023
									CHANNELS 6 Xposition Yposition Zposition Xrotation Yrotation Zrotation
									JOINT mixamorig:RightHandMiddle2
									{
										OFFSET -3.700005 -0.000015 0.003713
										CHANNELS 6 Xposition Yposition Zposition Xrotation Yrotation Zrotation
										JOINT mixamorig:RightHandMiddle3
										{
											OFFSET -2.949974 0.000015 -0.002054
											CHANNELS 6 Xposition Yposition Zposition Xrotation Yrotation Zrotation
											JOINT mixamorig:RightHandMiddle4
											{
												OFFSET -2.946640 0.000000 -0.000156
												CHANNELS 6 Xposition Yposition Zposition Xrotation Yrotation Zrotation
												End Site
												{
													OFFSET -294.664337 0.000000 -0.113670
												}
											}
										}
									}
								}
								JOINT mixamorig:RightHandRing1
								{
									OFFSET -9.103600 -0.043076 -1.865134
									CHANNELS 6 Xposition Yposition Zposition Xrotation Yrotation Zrotation
									JOINT mixamorig:RightHandRing2
									{
										OFFSET -3.379288 0.000000 -0.001055
										CHANNELS 6 Xposition Yposition Zposition Xrotation Yrotation Zrotation
										JOINT mixamorig:RightHandRing3
										{
											OFFSET -2.889687 -0.000015 0.000379
											CHANNELS 6 Xposition Yposition Zposition Xrotation Yrotation Zrotation
											JOINT mixamorig:RightHandRing4
											{
												OFFSET -2.638809 -0.000015 0.000941
												CHANNELS 6 Xposition Yposition Zposition Xrotation Yrotation Zrotation
												End Site
												{
													OFFSET -263.880371 0.000000 0.516020
												}
											}
										}
									}
								}
								JOINT mixamorig:RightHandPinky1
								{
									OFFSET -8.076683 -0.486710 -3.806280
									CHANNELS 6 Xposition Yposition Zposition Xrotation Yrotation Zrotation
									JOINT mixamorig:RightHandPinky2
									{
										OFFSET -3.600014 -0.000015 -0.003747
										CHANNELS 6 Xposition Yposition Zposition Xrotation Yrotation Zrotation
										JOINT mixamorig:RightHandPinky3
										{
											OFFSET -2.099983 0.000000 -0.005739
											CHANNELS 6 Xposition Yposition Zposition Xrotation Yrotation Zrotation
											JOINT mixamorig:RightHandPinky4
											{
												OFFSET -2.115768 -0.000031 -0.003680
												CHANNELS 6 Xposition Yposition Zposition Xrotation Yrotation Zrotation
												End Site
												{
													OFFSET -211.577087 0.000000 -0.350686
												}
											}
										}
									}
								}
							}
						}
					}
				}
				JOINT mixamorig:LeftShoulder
				{
					OFFSET 4.570447 11.014725 -2.160855
					CHANNELS 6 Xposition Yposition Zposition Xrotation Yrotation Zrotation
					JOINT mixamorig:LeftArm
					{
						OFFSET 10.592371 -0.524597 -2.232119
						CHANNELS 6 Xposition Yposition Zposition Xrotation Yrotation Zrotation
						JOINT mixamorig:LeftForeArm
						{
							OFFSET 27.841532 -0.000031 0.000026
							CHANNELS 6 Xposition Yposition Zposition Xrotation Yrotation Zrotation
							JOINT mixamorig:LeftHand
							{
								OFFSET 28.328846 -0.000061 0.000022
								CHANNELS 6 Xposition Yposition Zposition Xrotation Yrotation Zrotation
								JOINT mixamorig:LeftHandThumb1
								{
									OFFSET 2.466141 -1.576172 2.681732
									CHANNELS 6 Xposition Yposition Zposition Xrotation Yrotation Zrotation
									JOINT mixamorig:LeftHandThumb2
									{
										OFFSET 3.217812 -1.872070 1.916482
										CHANNELS 6 Xposition Yposition Zposition Xrotation Yrotation Zrotation
										JOINT mixamorig:LeftHandThumb3
										{
											OFFSET 2.656029 -1.528778 1.514513
											CHANNELS 6 Xposition Yposition Zposition Xrotation Yrotation Zrotation
											JOINT mixamorig:LeftHandThumb4
											{
												OFFSET 2.020889 -1.154053 1.115139
												CHANNELS 6 Xposition Yposition Zposition Xrotation Yrotation Zrotation
												End Site
												{
													OFFSET 190.885437 -115.081749 130.048782
												}
											}
										}
									}
								}
								JOINT mixamorig:LeftHandIndex1
								{
									OFFSET 9.109314 -0.518021 2.259871
									CHANNELS 6 Xposition Yposition Zposition Xrotation Yrotation Zrotation
									JOINT mixamorig:LeftHandIndex2
									{
										OFFSET 3.699989 0.000000 -0.000322
										CHANNELS 6 Xposition Yposition Zposition Xrotation Yrotation Zrotation
										JOINT mixamorig:LeftHandIndex3
										{
											OFFSET 2.850006 0.000000 0.000352
											CHANNELS 6 Xposition Yposition Zposition Xrotation Yrotation Zrotation
											JOINT mixamorig:LeftHandIndex4
											{
												OFFSET 2.774864 -0.000031 -0.000027
												CHANNELS 6 Xposition Yposition Zposition Xrotation Yrotation Zrotation
												End Site
												{
													OFFSET 277.486267 0.000000 -0.009857
												}
											}
										}
									}
								}
								JOINT mixamorig:LeftHandMiddle1
								{
									OFFSET 9.533394 0.000061 0.000044
									CHANNELS 6 Xposition Yposition Zposition Xrotation Yrotation Zrotation
									JOINT mixamorig:LeftHandMiddle2
									{
										OFFSET 3.699989 -0.000015 -0.000231
										CHANNELS 6 Xposition Yposition Zposition Xrotation Yrotation Zrotation
										JOINT mixamorig:LeftHandMiddle3
										{
											OFFSET 2.949997 -0.000015 -0.000059
											CHANNELS 6 Xposition Yposition Zposition Xrotation Yrotation Zrotation
											JOINT mixamorig:LeftHandMiddle4
											{
												OFFSET 2.952896 0.000031 0.000063
												CHANNELS 6 Xposition Yposition Zposition Xrotation Yrotation Zrotation
												End Site
												{
													OFFSET 295.289337 0.000000 0.022810
												}
											}
										}
									}
								}
								JOINT mixamorig:LeftHandRing1
								{
									OFFSET 9.104523 -0.042999 -1.865074
									CHANNELS 6 Xposition Yposition Zposition Xrotation Yrotation Zrotation
									JOINT mixamorig:LeftHandRing2
									{
										OFFSET 3.150009 -0.000031 0.000043
										CHANNELS 6 Xposition Yposition Zposition Xrotation Yrotation Zrotation
										JOINT mixamorig:LeftHandRing3
										{
											OFFSET 2.949982 -0.000015 0.000040
											CHANNELS 6 Xposition Yposition Zposition Xrotation Yrotation Zrotation
											JOINT mixamorig:LeftHandRing4
											{
												OFFSET 2.644348 0.000000 0.000057
												CHANNELS 6 Xposition Yposition Zposition Xrotation Yrotation Zrotation
												End Site
												{
													OFFSET 264.434631 0.000000 0.012105
												}
											}
										}
									}
								}
								JOINT mixamorig:LeftHandPinky1
								{
									OFFSET 8.077789 -0.486847 -3.806259
									CHANNELS 6 Xposition Yposition Zposition Xrotation Yrotation Zrotation
									JOINT mixamorig:LeftHandPinky2
									{
										OFFSET 3.599953 0.000031 0.014727
										CHANNELS 6 Xposition Yposition Zposition Xrotation Yrotation Zrotation
										JOINT mixamorig:LeftHandPinky3
										{
											OFFSET 2.100021 0.000015 0.007705
											CHANNELS 6 Xposition Yposition Zposition Xrotation Yrotation Zrotation
											JOINT mixamorig:LeftHandPinky4
											{
												OFFSET 2.125504 0.000031 0.007517
												CHANNELS 6 Xposition Yposition Zposition Xrotation Yrotation Zrotation
												End Site
												{
													OFFSET 212.550781 0.000000 0.625752
												}
											}
										}
									}
								}
							}
						}
					}
				}
			}
		}
	}
	JOINT mixamorig:RightUpLeg
	{
		OFFSET -8.207787 -6.751648 -1.599560
		CHANNELS 6 Xposition Yposition Zposition Xrotation Yrotation Zrotation
		JOINT mixamorig:RightLeg
		{
			OFFSET -0.000002 -44.370117 0.345942
			CHANNELS 6 Xposition Yposition Zposition Xrotation Yrotation Zrotation
			JOINT mixamorig:RightFoot
			{
				OFFSET 0.000003 -44.423679 -3.043532
				CHANNELS 6 Xposition Yposition Zposition Xrotation Yrotation Zrotation
				JOINT mixamorig:RightToeBase
				{
					OFFSET -0.000002 -8.728671 10.710558
					CHANNELS 6 Xposition Yposition Zposition Xrotation Yrotation Zrotation
					JOINT mixamorig:RightToe_End
					{
						OFFSET -0.000001 -0.000679 9.278119
						CHANNELS 6 Xposition Yposition Zposition Xrotation Yrotation Zrotation
						End Site
						{
							OFFSET 0.000000 -0.067690 927.812134
						}
					}
				}
			}
		}
	}
	JOINT mixamorig:LeftUpLeg
	{
		OFFSET 8.207793 -6.751686 -1.599556
		CHANNELS 6 Xposition Yposition Zposition Xrotation Yrotation Zrotation
		JOINT mixamorig:LeftLeg
		{
			OFFSET -0.000004 -44.370014 0.346954
			CHANNELS 6 Xposition Yposition Zposition Xrotation Yrotation Zrotation
			JOINT mixamorig:LeftFoot
			{
				OFFSET -0.000001 -44.423672 -3.044401
				CHANNELS 6 Xposition Yposition Zposition Xrotation Yrotation Zrotation
				JOINT mixamorig:LeftToeBase
				{
					OFFSET -0.000002 -8.728669 10.710558
					CHANNELS 6 Xposition Yposition Zposition Xrotation Yrotation Zrotation
					JOINT mixamorig:LeftToe_End
					{
						OFFSET -0.000003 -0.000679 9.278133
						CHANNELS 6 Xposition Yposition Zposition Xrotation Yrotation Zrotation
						End Site
						{
							OFFSET 0.000000 -0.068021 927.813477
						}
					}
				}
			}
		}
	}
}
MOTION
Frames: 3
Frame Time: 0.033333
0.000006 104.270477 1.554256 0.000010 0.000003 -0.000113 -0.000005 10.181587 0.131522 0.000001 -0.000003 0.000084 -0.000000 9.893967 -1.470711 0.000001 0.000000 -0.000000 -0.000000 9.220802 -1.370642 0.000000 -0.000000 -0.000000 0.000001 16.740433 -2.049030 0.000000 -0.000000 -0.000000 0.000000 9.617859 1.685014 0.000000 0.000000 0.000000 0.000002 22.037384 7.501101 0.000000 -0.000000 0.000000 -4.569968 11.014880 -2.160881 0.000008 0.000001 -0.000038 -10.592873 -0.524763 -2.231893 73.670270 30.262273 -22.900345 -27.841503 0.000023 0.000555 -49.487333 111.710551 68.397057 -28.328833 0.000022 0.000021 -0.000320 -0.000044 0.000006 -2.464423 -1.573949 2.682378 -27.381923 -149.466491 29.336598 -3.215259 -1.872529 1.924636 152.391656 33.902460 21.190802 -2.654941 -1.527893 1.513067 146.463517 27.375601 -33.305099 -2.018829 -1.152000 1.108064 -0.000001 0.000000 -0.000000 -9.108381 -0.517572 2.260172 108.972881 17.349674 -24.200856 -3.700059 0.000293 0.001559 103.981174 14.563821 -18.540752 -2.850096 0.000364 -0.000221 101.675985 12.068341 -14.788512 -2.772156 -0.000016 -0.000020 0.000001 0.000000 0.000000 -9.532593 0.000268 0.000266 96.001485 17.099402 -19.117735 -3.700068 0.000341 0.003980 96.256490 10.513994 -11.618075 -2.950068 0.000341 -0.001797 99.097630 11.215757 -13.130649 -2.946624 -0.000015 -0.000153 -0.000001 -0.000001 -0.000000 -9.103704 -0.042772 -1.864856 94.029978 18.501401 -19.776516 -3.379327 0.000342 -0.000800 97.164912 6.787143 -7.710136 -2.889737 0.000350 0.000661 104.428231 5.982208 -7.769524 -2.638811 -0.000016 0.000943 0.000000 -0.000000 0.000001 -8.076773 -0.486415 -3.806034 85.021136 20.629813 -18.800178 -3.600055 0.000281 -0.003519 88.560663 8.761432 -8.197145 -2.100015 0.000327 -0.005474 94.758541 5.123718 -5.330727 -2.115767 -0.000027 -0.003679 0.000003 -0.000001 -0.000001 4.570446 11.014691 -2.160851 -0.000018 0.000010 -0.000021 10.592499 -0.524563 -2.232371 49.077477 -65.109919 32.499321 27.841736 -0.000053 -0.000091 229.154459 -71.162737 245.178875 28.328838 -0.000028 0.000033 0.000020 -0.000088 0.000000 2.466144 -1.576174 2.681852 127.996789 147.204114 -165.187934 3.217819 -1.872009 1.916528 274.171662 42.732696 36.385599 2.656004 -1.528828 1.514599 -148.324210 52.153265 92.418832 2.020887 -1.154066 1.115155 0.000004 0.000006 0.000004 9.109144 -0.517687 2.259990 -162.730063 -8.356225 -51.352299 3.699723 0.000181 -0.000219 -171.715614 -11.338231 -107.749219 2.849794 0.000039 0.000426 -178.622315 -8.735352 -162.120141 2.774880 -0.000028 -0.000029 0.000000 -0.000001 -0.000000 9.533321 0.000417 0.000145 -164.463934 -3.481067 -25.077482 3.699693 0.000155 -0.000150 -177.171911 -4.811808 -119.148088 2.949951 -0.000045 0.000009 -181.938017 -7.662313 151.693106 2.952864 -0.000047 0.000063 0.000001 -0.000001 0.000001 9.104517 -0.042666 -1.864976 -166.583779 -0.724568 -6.167333 3.149724 0.000028 0.000081 -179.816737 9.153126 177.691374 2.949546 0.000218 0.000083 -181.703208 3.761632 -131.313556 2.644325 0.000057 0.000054 -0.000000 0.000002 -0.000000 8.077868 -0.486543 -3.806167 -167.750389 2.961516 22.080890 3.599732 0.000017 0.014736 -180.807019 30.633419 181.427788 2.099722 0.000056 0.007657 -188.831303 40.362456 202.850294 2.125503 -0.000043 0.007514 0.000002 -0.000000 -0.000003 -8.207786 -6.751667 -1.599560 -0.077001 -0.000003 0.000080 -0.000002 -44.370110 0.345938 0.153719 -0.000000 -0.000000 0.000000 -44.423679 -3.043532 -0.076700 0.000000 -0.000002 -0.000006 -8.728667 10.710559 -0.000009 -0.000000 -0.000000 -0.000001 -0.000679 9.278123 0.000000 -0.000000 -0.000000 8.207792 -6.751710 -1.599556 -0.074518 -0.000003 0.000081 -0.000002 -44.370014 0.346960 0.148822 0.000002 0.000000 -0.000001 -44.423664 -3.044403 -0.074314 0.000000 -0.000002 -0.000004 -8.728671 10.710558 0.000007 -0.000000 -0.000000 0.000000 -0.000680 9.278137 -0.000000 0.000000 -0.000001 
0.000006 104.270477 1.554256 0.000010 0.000003 -0.000113 -0.000005 10.181587 0.131522 0.000001 -0.000003 0.000084 -0.000000 9.893967 -1.470711 0.000001 0.000000 -0.000000 -0.000000 9.220802 -1.370642 0.000000 -0.000000 -0.000000 0.000001 16.740433 -2.049030 0.000000 -0.000000 -0.000000 0.000000 9.617859 1.685014 0.000000 0.000000 0.000000 0.000002 22.037384 7.501101 0.000000 -0.000000 0.000000 -4.569968 11.014880 -2.160881 0.000008 0.000001 -0.000038 -10.592876 -0.524759 -2.231902 73.639480 28.012149 -21.155123 -27.841507 0.000014 0.000549 -48.936314 110.205737 66.238860 -28.328814 0.000007 0.000021 -0.000320 -0.000044 0.000004 -2.464437 -1.573930 2.682366 -27.615399 -149.690426 29.044597 -3.215259 -1.872546 1.924623 152.687936 33.673567 19.201004 -2.654966 -1.527878 1.513069 146.310179 27.432302 -32.952364 -2.018822 -1.152002 1.108073 -0.000004 0.000000 -0.000000 -9.108402 -0.517565 2.260166 108.883836 17.158246 -23.900031 -3.700065 0.000315 0.001542 104.234007 14.117332 -18.055849 -2.850084 0.000362 -0.000220 102.045922 11.722217 -14.459934 -2.772177 -0.000017 -0.000019 0.000000 -0.000001 -0.000000 -9.532595 0.000271 0.000247 96.146428 16.932218 -18.980122 -3.700056 0.000323 0.003976 96.290730 10.350224 -11.442770 -2.950056 0.000325 -0.001792 98.992411 11.147390 -13.026717 -2.946641 0.000004 -0.000156 0.000002 0.000001 0.000000 -9.103704 -0.042766 -1.864849 94.159315 18.496799 -19.815509 -3.379303 0.000332 -0.000804 97.184924 7.047993 -8.008384 -2.889740 0.000363 0.000671 104.382817 6.184416 -8.023471 -2.638814 -0.000017 0.000938 -0.000001 0.000001 0.000002 -8.076762 -0.486405 -3.806021 85.036518 20.740255 -18.906824 -3.600028 0.000283 -0.003518 88.433403 9.200132 -8.604051 -2.100017 0.000321 -0.005466 94.737681 5.516835 -5.754329 -2.115767 -0.000053 -0.003680 0.000002 -0.000003 -0.000000 4.570446 11.014691 -2.160851 -0.000018 0.000010 -0.000021 10.592489 -0.524553 -2.232372 47.843938 -62.278457 30.006568 27.841743 -0.000064 -0.000087 229.018128 -71.325234 244.859768 28.328831 -0.000013 0.000035 0.000021 -0.000091 0.000000 2.466101 -1.576195 2.681869 29.581368 117.419339 -81.890765 3.217820 -1.872021 1.916545 254.792721 43.946718 49.815708 2.656054 -1.528756 1.514621 -107.313487 33.961835 47.442395 2.020880 -1.154075 1.115155 0.000001 0.000007 0.000004 9.109060 -0.517827 2.259996 -165.450527 -16.601830 -97.638066 3.699832 0.000005 -0.000231 -177.719200 -22.556761 -168.536379 2.850034 0.000036 0.000410 -189.977778 -17.701755 -238.557143 2.774887 -0.000028 -0.000028 -0.000001 -0.000002 -0.000003 9.533110 0.000229 0.000140 -171.632299 -10.865705 -104.879419 3.700071 0.000019 -0.000181 -189.979007 -14.803358 -247.826365 2.950132 0.000174 -0.000043 -201.307545 -14.529790 68.263458 2.952860 -0.000010 0.000058 -0.000001 0.000003 -0.000001 9.104380 -0.043041 -1.865000 -179.333051 -11.190077 -173.185211 3.150093 0.000324 0.000023 -211.401363 -7.223022 25.316294 2.950022 0.000316 -0.000032 -226.404802 -4.558154 10.612729 2.644322 0.000046 0.000055 0.000002 0.000000 -0.000002 8.077751 -0.486921 -3.806191 -182.792678 -10.377577 155.864288 3.600004 0.000425 0.014676 -212.798109 -3.129024 12.185907 2.099993 0.000354 0.007592 -231.333262 1.252028 358.220090 2.125510 -0.000029 0.007521 0.000001 0.000004 0.000000 -8.207786 -6.751667 -1.599560 -0.077001 -0.000003 0.000080 -0.000002 -44.370110 0.345938 0.153719 -0.000000 -0.000000 0.000000 -44.423679 -3.043532 -0.076700 0.000000 -0.000002 -0.000006 -8.728667 10.710559 -0.000009 -0.000000 -0.000000 -0.000001 -0.000679 9.278123 0.000000 -0.000000 -0.000000 8.207792 -6.751710 -1.599556 -0.074518 -0.000003 0.000081 -0.000002 -44.370014 0.346960 0.148822 0.000002 0.000000 -0.000001 -44.423664 -3.044403 -0.074314 0.000000 -0.000002 -0.000004 -8.728671 10.710558 0.000007 -0.000000 -0.000000 0.000000 -0.000680 9.278137 -0.000000 0.000000 -0.000001 
0.000006 104.270477 1.554256 0.000010 0.000003 -0.000113 -0.000005 10.181587 0.131522 0.000001 -0.000003 0.000084 -0.000000 9.893967 -1.470711 0.000001 0.000000 -0.000000 -0.000000 9.220802 -1.370642 0.000000 -0.000000 -0.000000 0.000001 16.740433 -2.049030 0.000000 -0.000000 -0.000000 0.000000 9.617859 1.685014 0.000000 0.000000 0.000000 0.000002 22.037384 7.501101 0.000000 -0.000000 0.000000 -4.569968 11.014880 -2.160881 0.000008 0.000001 -0.000038 -10.592876 -0.524761 -2.231895 73.689709 28.629491 -21.649079 -27.841509 0.000009 0.000568 -48.408747 108.747567 64.196880 -28.328833 0.000007 0.000028 -0.000322 -0.000043 0.000006 -2.464438 -1.573967 2.682367 -25.545188 -149.109177 32.431070 -3.215266 -1.872525 1.924637 152.540322 33.807667 20.318076 -2.654965 -1.527889 1.513071 146.346679 27.433291 -32.873496 -2.018833 -1.152000 1.108066 -0.000001 -0.000002 -0.000001 -9.108389 -0.517578 2.260174 108.923629 17.411365 -24.264054 -3.700072 0.000314 0.001549 103.739734 14.403913 -18.260174 -2.850102 0.000360 -0.000238 101.433937 11.908273 -14.530934 -2.772178 -0.000000 -0.000015 -0.000000 0.000001 -0.000000 -9.532594 0.000259 0.000256 96.041073 17.110665 -19.143253 -3.700056 0.000340 0.003975 96.089178 10.497255 -11.565672 -2.950059 0.000346 -0.001782 98.931233 11.273563 -13.159791 -2.946638 0.000002 -0.000156 0.000002 -0.000001 -0.000001 -9.103715 -0.042764 -1.864871 94.193500 18.840807 -20.195609 -3.379326 0.000327 -0.000798 97.323734 7.120203 -8.109923 -2.889761 0.000351 0.000664 104.284974 6.232866 -8.071640 -2.638786 -0.000012 0.000943 -0.000000 0.000001 0.000003 -8.076761 -0.486403 -3.806025 85.228152 20.975099 -19.186129 -3.600029 0.000286 -0.003516 88.297564 9.283569 -8.664401 -2.100020 0.000320 -0.005466 94.386794 5.563588 -5.769459 -2.115773 -0.000055 -0.003675 -0.000003 0.000001 -0.000001 4.570446 11.014691 -2.160851 -0.000018 0.000010 -0.000021 10.592487 -0.524547 -2.232370 47.428957 -60.536896 28.757992 27.841743 -0.000064 -0.000099 229.833680 -72.814003 244.416025 28.328833 -0.000012 0.000024 0.000019 -0.000089 -0.000000 2.466050 -1.576206 2.681882 -0.424406 115.940194 -48.106539 3.217794 -1.872042 1.916525 259.460063 56.216972 51.659323 2.656022 -1.528778 1.514593 -88.644394 41.147385 38.400573 2.020899 -1.154069 1.115149 0.000000 0.000001 0.000002 9.109159 -0.517759 2.260085 -134.331270 -21.192134 -47.900943 3.699740 0.000089 -0.000187 -167.179658 -26.790976 -129.461359 2.849995 -0.000014 0.000423 -186.095320 -17.966215 -217.235177 2.774879 -0.000031 -0.000027 0.000002 0.000003 0.000000 9.533242 0.000366 0.000231 -144.424418 -15.446481 -45.818883 3.699766 0.000006 -0.000122 -174.929232 -21.416154 -153.650897 2.950115 0.000051 -0.000017 -190.151073 -13.819903 107.549094 2.952867 -0.000032 0.000051 0.000001 0.000003 -0.000004 9.104307 -0.042739 -1.864906 -155.435339 -17.296996 -69.880424 3.149921 -0.000031 0.000119 -186.278014 -14.206124 132.506476 2.950065 0.000229 0.000058 -198.714436 -6.640736 38.803182 2.644327 0.000011 0.000052 0.000001 0.000000 -0.000001 8.077535 -0.486589 -3.806124 -162.620274 -13.851178 282.729014 3.600082 0.000133 0.014769 -189.718872 -7.949058 83.937656 2.100047 0.000365 0.007695 -203.698275 -2.872777 375.802035 2.125504 -0.000031 0.007510 0.000001 -0.000002 0.000003 -8.207786 -6.751667 -1.599560 -0.077001 -0.000003 0.000080 -0.000002 -44.370110 0.345938 0.153719 -0.000000 -0.000000 0.000000 -44.423679 -3.043532 -0.076700 0.000000 -0.000002 -0.000006 -8.728667 10.710559 -0.000009 -0.000000 -0.000000 -0.000001 -0.000679 9.278123 0.000000 -0.000000 -0.000000 8.207792 -6.751710 -1.599556 -0.074518 -0.000003 0.000081 -0.000002 -44.370014 0.346960 0.148822 0.000002 0.000000 -0.000001 -44.423664 -3.044403 -0.074314 0.000000 -0.000002 -0.000004 -8.728671 10.710558 0.000007 -0.000000 -0.000000 0.000000 -0.000680 9.278137 -0.000000 0.000000 -0.000001 
